<mxfile host="app.diagrams.net" agent="Mozilla/5.0 (Macintosh; Intel Mac OS X 10_15_7) AppleWebKit/537.36 (KHTML, like Gecko) Chrome/136.0.0.0 Safari/537.36" version="27.0.9">
  <diagram name="Page-1" id="uMxr-bs-0AbAeg90XenR">
    <mxGraphModel dx="1352" dy="766" grid="0" gridSize="10" guides="1" tooltips="1" connect="1" arrows="1" fold="1" page="1" pageScale="1" pageWidth="2000" pageHeight="2020" math="0" shadow="0">
      <root>
        <mxCell id="0" />
        <mxCell id="1" parent="0" />
        <mxCell id="DtIZ0IdrxXmSI-dwIeBW-1" value="" style="endArrow=none;dashed=1;html=1;rounded=0;" parent="1" edge="1">
          <mxGeometry width="50" height="50" relative="1" as="geometry">
            <mxPoint x="42" y="822" as="sourcePoint" />
            <mxPoint x="42" y="222" as="targetPoint" />
          </mxGeometry>
        </mxCell>
        <mxCell id="DtIZ0IdrxXmSI-dwIeBW-2" value="" style="endArrow=none;dashed=1;html=1;rounded=0;" parent="1" edge="1">
          <mxGeometry width="50" height="50" relative="1" as="geometry">
            <mxPoint x="222" y="826" as="sourcePoint" />
            <mxPoint x="222" y="226" as="targetPoint" />
          </mxGeometry>
        </mxCell>
        <mxCell id="DtIZ0IdrxXmSI-dwIeBW-3" value="" style="endArrow=none;dashed=1;html=1;rounded=0;" parent="1" edge="1">
          <mxGeometry width="50" height="50" relative="1" as="geometry">
            <mxPoint x="395" y="830" as="sourcePoint" />
            <mxPoint x="395" y="230" as="targetPoint" />
          </mxGeometry>
        </mxCell>
        <mxCell id="DtIZ0IdrxXmSI-dwIeBW-4" style="edgeStyle=orthogonalEdgeStyle;rounded=0;orthogonalLoop=1;jettySize=auto;html=1;exitX=0.5;exitY=1;exitDx=0;exitDy=0;entryX=0.5;entryY=0;entryDx=0;entryDy=0;" parent="1" source="DtIZ0IdrxXmSI-dwIeBW-5" target="DtIZ0IdrxXmSI-dwIeBW-7" edge="1">
          <mxGeometry relative="1" as="geometry" />
        </mxCell>
        <mxCell id="DtIZ0IdrxXmSI-dwIeBW-5" value="任务初始化" style="rounded=0;whiteSpace=wrap;html=1;" parent="1" vertex="1">
          <mxGeometry x="84" y="377" width="120" height="60" as="geometry" />
        </mxCell>
        <mxCell id="DtIZ0IdrxXmSI-dwIeBW-6" style="edgeStyle=orthogonalEdgeStyle;rounded=0;orthogonalLoop=1;jettySize=auto;html=1;exitX=0.5;exitY=1;exitDx=0;exitDy=0;" parent="1" source="DtIZ0IdrxXmSI-dwIeBW-7" target="DtIZ0IdrxXmSI-dwIeBW-10" edge="1">
          <mxGeometry relative="1" as="geometry" />
        </mxCell>
        <mxCell id="DtIZ0IdrxXmSI-dwIeBW-7" value="冻结任务" style="rounded=0;whiteSpace=wrap;html=1;" parent="1" vertex="1">
          <mxGeometry x="84" y="516" width="120" height="60" as="geometry" />
        </mxCell>
        <mxCell id="DtIZ0IdrxXmSI-dwIeBW-8" style="edgeStyle=orthogonalEdgeStyle;rounded=0;orthogonalLoop=1;jettySize=auto;html=1;entryX=0;entryY=0.5;entryDx=0;entryDy=0;" parent="1" source="DtIZ0IdrxXmSI-dwIeBW-10" target="DtIZ0IdrxXmSI-dwIeBW-5" edge="1">
          <mxGeometry relative="1" as="geometry">
            <Array as="points">
              <mxPoint x="64" y="696" />
              <mxPoint x="64" y="407" />
            </Array>
          </mxGeometry>
        </mxCell>
        <mxCell id="DtIZ0IdrxXmSI-dwIeBW-9" value="未解冻" style="edgeLabel;html=1;align=center;verticalAlign=middle;resizable=0;points=[];" parent="DtIZ0IdrxXmSI-dwIeBW-8" vertex="1" connectable="0">
          <mxGeometry x="-0.2575" relative="1" as="geometry">
            <mxPoint as="offset" />
          </mxGeometry>
        </mxCell>
        <mxCell id="DtIZ0IdrxXmSI-dwIeBW-10" value="审核任务" style="rounded=0;whiteSpace=wrap;html=1;" parent="1" vertex="1">
          <mxGeometry x="84" y="666" width="120" height="60" as="geometry" />
        </mxCell>
        <mxCell id="DtIZ0IdrxXmSI-dwIeBW-11" value="任务初始化" style="text;html=1;align=center;verticalAlign=middle;whiteSpace=wrap;rounded=0;" parent="1" vertex="1">
          <mxGeometry x="109.5" y="239" width="69" height="30" as="geometry" />
        </mxCell>
        <mxCell id="DtIZ0IdrxXmSI-dwIeBW-12" value="任务打包" style="text;html=1;align=center;verticalAlign=middle;whiteSpace=wrap;rounded=0;" parent="1" vertex="1">
          <mxGeometry x="267.5" y="239" width="69" height="30" as="geometry" />
        </mxCell>
        <mxCell id="DtIZ0IdrxXmSI-dwIeBW-13" style="edgeStyle=orthogonalEdgeStyle;rounded=0;orthogonalLoop=1;jettySize=auto;html=1;entryX=1;entryY=0.5;entryDx=0;entryDy=0;" parent="1" edge="1">
          <mxGeometry relative="1" as="geometry">
            <mxPoint x="368" y="622" as="targetPoint" />
            <mxPoint x="308" y="652" as="sourcePoint" />
            <Array as="points">
              <mxPoint x="308" y="697" />
              <mxPoint x="388" y="697" />
              <mxPoint x="388" y="622" />
            </Array>
          </mxGeometry>
        </mxCell>
        <mxCell id="DtIZ0IdrxXmSI-dwIeBW-14" value="未冻结" style="edgeLabel;html=1;align=center;verticalAlign=middle;resizable=0;points=[];" parent="DtIZ0IdrxXmSI-dwIeBW-13" vertex="1" connectable="0">
          <mxGeometry x="-0.3298" y="4" relative="1" as="geometry">
            <mxPoint x="8" y="2" as="offset" />
          </mxGeometry>
        </mxCell>
        <mxCell id="DtIZ0IdrxXmSI-dwIeBW-15" value="解冻任务" style="rounded=0;whiteSpace=wrap;html=1;" parent="1" vertex="1">
          <mxGeometry x="248" y="595" width="120" height="60" as="geometry" />
        </mxCell>
        <mxCell id="DtIZ0IdrxXmSI-dwIeBW-16" value="上游" style="rounded=1;whiteSpace=wrap;html=1;" parent="1" vertex="1">
          <mxGeometry x="84" y="280" width="286" height="60" as="geometry" />
        </mxCell>
        <mxCell id="DtIZ0IdrxXmSI-dwIeBW-17" value="" style="endArrow=classic;html=1;rounded=0;" parent="1" target="DtIZ0IdrxXmSI-dwIeBW-5" edge="1">
          <mxGeometry width="50" height="50" relative="1" as="geometry">
            <mxPoint x="143" y="340" as="sourcePoint" />
            <mxPoint x="193" y="290" as="targetPoint" />
          </mxGeometry>
        </mxCell>
        <mxCell id="DtIZ0IdrxXmSI-dwIeBW-18" value="" style="endArrow=classic;html=1;rounded=0;entryX=0.5;entryY=0;entryDx=0;entryDy=0;" parent="1" target="DtIZ0IdrxXmSI-dwIeBW-15" edge="1">
          <mxGeometry width="50" height="50" relative="1" as="geometry">
            <mxPoint x="306" y="340" as="sourcePoint" />
            <mxPoint x="343" y="449" as="targetPoint" />
          </mxGeometry>
        </mxCell>
        <mxCell id="DtIZ0IdrxXmSI-dwIeBW-19" value="" style="endArrow=none;dashed=1;html=1;rounded=0;" parent="1" edge="1">
          <mxGeometry width="50" height="50" relative="1" as="geometry">
            <mxPoint x="462" y="830" as="sourcePoint" />
            <mxPoint x="462" y="230" as="targetPoint" />
          </mxGeometry>
        </mxCell>
        <mxCell id="DtIZ0IdrxXmSI-dwIeBW-20" value="" style="endArrow=none;dashed=1;html=1;rounded=0;" parent="1" edge="1">
          <mxGeometry width="50" height="50" relative="1" as="geometry">
            <mxPoint x="642" y="834" as="sourcePoint" />
            <mxPoint x="642" y="234" as="targetPoint" />
          </mxGeometry>
        </mxCell>
        <mxCell id="DtIZ0IdrxXmSI-dwIeBW-21" value="" style="endArrow=none;dashed=1;html=1;rounded=0;" parent="1" edge="1">
          <mxGeometry width="50" height="50" relative="1" as="geometry">
            <mxPoint x="815" y="838" as="sourcePoint" />
            <mxPoint x="815" y="238" as="targetPoint" />
          </mxGeometry>
        </mxCell>
        <mxCell id="DtIZ0IdrxXmSI-dwIeBW-22" style="edgeStyle=orthogonalEdgeStyle;rounded=0;orthogonalLoop=1;jettySize=auto;html=1;exitX=0.5;exitY=1;exitDx=0;exitDy=0;entryX=0.5;entryY=0;entryDx=0;entryDy=0;" parent="1" source="DtIZ0IdrxXmSI-dwIeBW-23" target="DtIZ0IdrxXmSI-dwIeBW-25" edge="1">
          <mxGeometry relative="1" as="geometry" />
        </mxCell>
        <mxCell id="DtIZ0IdrxXmSI-dwIeBW-23" value="任务初始化" style="rounded=0;whiteSpace=wrap;html=1;" parent="1" vertex="1">
          <mxGeometry x="504" y="385" width="120" height="60" as="geometry" />
        </mxCell>
        <mxCell id="DtIZ0IdrxXmSI-dwIeBW-24" style="edgeStyle=orthogonalEdgeStyle;rounded=0;orthogonalLoop=1;jettySize=auto;html=1;entryX=0.5;entryY=0;entryDx=0;entryDy=0;" parent="1" source="DtIZ0IdrxXmSI-dwIeBW-25" target="DtIZ0IdrxXmSI-dwIeBW-37" edge="1">
          <mxGeometry relative="1" as="geometry" />
        </mxCell>
        <mxCell id="DtIZ0IdrxXmSI-dwIeBW-25" value="冻结任务" style="rounded=0;whiteSpace=wrap;html=1;" parent="1" vertex="1">
          <mxGeometry x="504" y="477" width="120" height="60" as="geometry" />
        </mxCell>
        <mxCell id="DtIZ0IdrxXmSI-dwIeBW-26" value="审核任务" style="rounded=0;whiteSpace=wrap;html=1;" parent="1" vertex="1">
          <mxGeometry x="504" y="711" width="120" height="60" as="geometry" />
        </mxCell>
        <mxCell id="DtIZ0IdrxXmSI-dwIeBW-27" value="任务初始化" style="text;html=1;align=center;verticalAlign=middle;whiteSpace=wrap;rounded=0;" parent="1" vertex="1">
          <mxGeometry x="529.5" y="247" width="69" height="30" as="geometry" />
        </mxCell>
        <mxCell id="DtIZ0IdrxXmSI-dwIeBW-28" value="任务打包" style="text;html=1;align=center;verticalAlign=middle;whiteSpace=wrap;rounded=0;" parent="1" vertex="1">
          <mxGeometry x="687.5" y="247" width="69" height="30" as="geometry" />
        </mxCell>
        <mxCell id="DtIZ0IdrxXmSI-dwIeBW-29" style="edgeStyle=orthogonalEdgeStyle;rounded=0;orthogonalLoop=1;jettySize=auto;html=1;" parent="1" source="DtIZ0IdrxXmSI-dwIeBW-30" target="DtIZ0IdrxXmSI-dwIeBW-26" edge="1">
          <mxGeometry relative="1" as="geometry">
            <Array as="points">
              <mxPoint x="729" y="669" />
              <mxPoint x="564" y="669" />
            </Array>
          </mxGeometry>
        </mxCell>
        <mxCell id="DtIZ0IdrxXmSI-dwIeBW-30" value="解冻任务" style="rounded=0;whiteSpace=wrap;html=1;" parent="1" vertex="1">
          <mxGeometry x="669" y="572" width="120" height="60" as="geometry" />
        </mxCell>
        <mxCell id="DtIZ0IdrxXmSI-dwIeBW-31" value="上游" style="rounded=1;whiteSpace=wrap;html=1;" parent="1" vertex="1">
          <mxGeometry x="504" y="288" width="286" height="60" as="geometry" />
        </mxCell>
        <mxCell id="DtIZ0IdrxXmSI-dwIeBW-32" value="" style="endArrow=classic;html=1;rounded=0;" parent="1" target="DtIZ0IdrxXmSI-dwIeBW-23" edge="1">
          <mxGeometry width="50" height="50" relative="1" as="geometry">
            <mxPoint x="563" y="348" as="sourcePoint" />
            <mxPoint x="613" y="298" as="targetPoint" />
          </mxGeometry>
        </mxCell>
        <mxCell id="DtIZ0IdrxXmSI-dwIeBW-33" style="edgeStyle=orthogonalEdgeStyle;rounded=0;orthogonalLoop=1;jettySize=auto;html=1;" parent="1" source="DtIZ0IdrxXmSI-dwIeBW-37" target="DtIZ0IdrxXmSI-dwIeBW-30" edge="1">
          <mxGeometry relative="1" as="geometry" />
        </mxCell>
        <mxCell id="DtIZ0IdrxXmSI-dwIeBW-34" value="是" style="edgeLabel;html=1;align=center;verticalAlign=middle;resizable=0;points=[];" parent="DtIZ0IdrxXmSI-dwIeBW-33" vertex="1" connectable="0">
          <mxGeometry x="-0.1204" y="2" relative="1" as="geometry">
            <mxPoint as="offset" />
          </mxGeometry>
        </mxCell>
        <mxCell id="DtIZ0IdrxXmSI-dwIeBW-35" style="edgeStyle=orthogonalEdgeStyle;rounded=0;orthogonalLoop=1;jettySize=auto;html=1;entryX=0;entryY=0.5;entryDx=0;entryDy=0;" parent="1" source="DtIZ0IdrxXmSI-dwIeBW-37" target="DtIZ0IdrxXmSI-dwIeBW-23" edge="1">
          <mxGeometry relative="1" as="geometry">
            <Array as="points">
              <mxPoint x="484" y="602" />
              <mxPoint x="484" y="415" />
            </Array>
          </mxGeometry>
        </mxCell>
        <mxCell id="DtIZ0IdrxXmSI-dwIeBW-36" value="否" style="edgeLabel;html=1;align=center;verticalAlign=middle;resizable=0;points=[];" parent="DtIZ0IdrxXmSI-dwIeBW-35" vertex="1" connectable="0">
          <mxGeometry x="0.0842" y="3" relative="1" as="geometry">
            <mxPoint as="offset" />
          </mxGeometry>
        </mxCell>
        <mxCell id="DtIZ0IdrxXmSI-dwIeBW-37" value="是否全部冻结" style="rhombus;whiteSpace=wrap;html=1;" parent="1" vertex="1">
          <mxGeometry x="511" y="570" width="107" height="64" as="geometry" />
        </mxCell>
        <mxCell id="DtIZ0IdrxXmSI-dwIeBW-38" value="" style="endArrow=none;dashed=1;html=1;rounded=0;" parent="1" edge="1">
          <mxGeometry width="50" height="50" relative="1" as="geometry">
            <mxPoint x="841" y="828" as="sourcePoint" />
            <mxPoint x="841" y="228" as="targetPoint" />
          </mxGeometry>
        </mxCell>
        <mxCell id="DtIZ0IdrxXmSI-dwIeBW-39" value="" style="endArrow=none;dashed=1;html=1;rounded=0;" parent="1" edge="1">
          <mxGeometry width="50" height="50" relative="1" as="geometry">
            <mxPoint x="1021" y="832" as="sourcePoint" />
            <mxPoint x="1021" y="232" as="targetPoint" />
          </mxGeometry>
        </mxCell>
        <mxCell id="DtIZ0IdrxXmSI-dwIeBW-40" value="" style="endArrow=none;dashed=1;html=1;rounded=0;" parent="1" edge="1">
          <mxGeometry width="50" height="50" relative="1" as="geometry">
            <mxPoint x="1194" y="836" as="sourcePoint" />
            <mxPoint x="1194" y="236" as="targetPoint" />
          </mxGeometry>
        </mxCell>
        <mxCell id="DtIZ0IdrxXmSI-dwIeBW-41" style="edgeStyle=orthogonalEdgeStyle;rounded=0;orthogonalLoop=1;jettySize=auto;html=1;exitX=0.5;exitY=1;exitDx=0;exitDy=0;entryX=0.5;entryY=0;entryDx=0;entryDy=0;" parent="1" source="DtIZ0IdrxXmSI-dwIeBW-42" target="DtIZ0IdrxXmSI-dwIeBW-44" edge="1">
          <mxGeometry relative="1" as="geometry" />
        </mxCell>
        <mxCell id="DtIZ0IdrxXmSI-dwIeBW-42" value="任务初始化" style="rounded=0;whiteSpace=wrap;html=1;" parent="1" vertex="1">
          <mxGeometry x="883" y="383" width="120" height="60" as="geometry" />
        </mxCell>
        <mxCell id="DtIZ0IdrxXmSI-dwIeBW-43" style="edgeStyle=orthogonalEdgeStyle;rounded=0;orthogonalLoop=1;jettySize=auto;html=1;exitX=0.5;exitY=1;exitDx=0;exitDy=0;" parent="1" source="DtIZ0IdrxXmSI-dwIeBW-44" target="DtIZ0IdrxXmSI-dwIeBW-47" edge="1">
          <mxGeometry relative="1" as="geometry" />
        </mxCell>
        <mxCell id="DtIZ0IdrxXmSI-dwIeBW-44" value="冻结任务" style="rounded=0;whiteSpace=wrap;html=1;" parent="1" vertex="1">
          <mxGeometry x="883" y="522" width="120" height="60" as="geometry" />
        </mxCell>
        <mxCell id="DtIZ0IdrxXmSI-dwIeBW-45" style="edgeStyle=orthogonalEdgeStyle;rounded=0;orthogonalLoop=1;jettySize=auto;html=1;entryX=0;entryY=0.5;entryDx=0;entryDy=0;" parent="1" source="DtIZ0IdrxXmSI-dwIeBW-47" target="DtIZ0IdrxXmSI-dwIeBW-42" edge="1">
          <mxGeometry relative="1" as="geometry">
            <Array as="points">
              <mxPoint x="863" y="702" />
              <mxPoint x="863" y="413" />
            </Array>
          </mxGeometry>
        </mxCell>
        <mxCell id="DtIZ0IdrxXmSI-dwIeBW-46" value="未解冻" style="edgeLabel;html=1;align=center;verticalAlign=middle;resizable=0;points=[];" parent="DtIZ0IdrxXmSI-dwIeBW-45" vertex="1" connectable="0">
          <mxGeometry x="-0.2575" relative="1" as="geometry">
            <mxPoint as="offset" />
          </mxGeometry>
        </mxCell>
        <mxCell id="DtIZ0IdrxXmSI-dwIeBW-47" value="审核任务" style="rounded=0;whiteSpace=wrap;html=1;" parent="1" vertex="1">
          <mxGeometry x="883" y="672" width="120" height="60" as="geometry" />
        </mxCell>
        <mxCell id="DtIZ0IdrxXmSI-dwIeBW-48" value="任务初始化" style="text;html=1;align=center;verticalAlign=middle;whiteSpace=wrap;rounded=0;" parent="1" vertex="1">
          <mxGeometry x="908.5" y="245" width="69" height="30" as="geometry" />
        </mxCell>
        <mxCell id="DtIZ0IdrxXmSI-dwIeBW-49" value="任务打包" style="text;html=1;align=center;verticalAlign=middle;whiteSpace=wrap;rounded=0;" parent="1" vertex="1">
          <mxGeometry x="1066.5" y="245" width="69" height="30" as="geometry" />
        </mxCell>
        <mxCell id="DtIZ0IdrxXmSI-dwIeBW-52" value="解冻任务" style="rounded=0;whiteSpace=wrap;html=1;" parent="1" vertex="1">
          <mxGeometry x="1045" y="522" width="120" height="60" as="geometry" />
        </mxCell>
        <mxCell id="DtIZ0IdrxXmSI-dwIeBW-53" value="上游" style="rounded=1;whiteSpace=wrap;html=1;" parent="1" vertex="1">
          <mxGeometry x="883" y="286" width="286" height="60" as="geometry" />
        </mxCell>
        <mxCell id="DtIZ0IdrxXmSI-dwIeBW-54" value="" style="endArrow=classic;html=1;rounded=0;" parent="1" target="DtIZ0IdrxXmSI-dwIeBW-42" edge="1">
          <mxGeometry width="50" height="50" relative="1" as="geometry">
            <mxPoint x="942" y="346" as="sourcePoint" />
            <mxPoint x="992" y="296" as="targetPoint" />
          </mxGeometry>
        </mxCell>
        <mxCell id="DtIZ0IdrxXmSI-dwIeBW-55" value="" style="endArrow=classic;html=1;rounded=0;entryX=0.5;entryY=0;entryDx=0;entryDy=0;" parent="1" target="DtIZ0IdrxXmSI-dwIeBW-52" edge="1">
          <mxGeometry width="50" height="50" relative="1" as="geometry">
            <mxPoint x="1105" y="346" as="sourcePoint" />
            <mxPoint x="1142" y="455" as="targetPoint" />
          </mxGeometry>
        </mxCell>
        <mxCell id="DtIZ0IdrxXmSI-dwIeBW-56" value="定时任务-解冻" style="rounded=1;whiteSpace=wrap;html=1;fillColor=#66B2FF;" parent="1" vertex="1">
          <mxGeometry x="1049" y="675" width="120" height="60" as="geometry" />
        </mxCell>
        <mxCell id="RWU9gz9hV0U9yjADyxS5-1" style="edgeStyle=orthogonalEdgeStyle;rounded=0;orthogonalLoop=1;jettySize=auto;html=1;exitX=1;exitY=0.25;exitDx=0;exitDy=0;entryX=0;entryY=0.5;entryDx=0;entryDy=0;" edge="1" parent="1" source="RWU9gz9hV0U9yjADyxS5-13" target="RWU9gz9hV0U9yjADyxS5-5">
          <mxGeometry relative="1" as="geometry" />
        </mxCell>
        <mxCell id="RWU9gz9hV0U9yjADyxS5-2" value="" style="endArrow=classic;html=1;rounded=0;" edge="1" parent="1">
          <mxGeometry width="50" height="50" relative="1" as="geometry">
            <mxPoint x="100" y="920" as="sourcePoint" />
            <mxPoint x="928" y="920" as="targetPoint" />
          </mxGeometry>
        </mxCell>
        <mxCell id="RWU9gz9hV0U9yjADyxS5-3" value="&lt;font style=&quot;font-size: 18px;&quot;&gt;时间&lt;/font&gt;" style="text;html=1;align=center;verticalAlign=middle;whiteSpace=wrap;rounded=0;" vertex="1" parent="1">
          <mxGeometry x="380" y="879" width="98" height="37" as="geometry" />
        </mxCell>
        <mxCell id="RWU9gz9hV0U9yjADyxS5-23" style="edgeStyle=orthogonalEdgeStyle;rounded=0;orthogonalLoop=1;jettySize=auto;html=1;entryX=0;entryY=0.5;entryDx=0;entryDy=0;" edge="1" parent="1" source="RWU9gz9hV0U9yjADyxS5-5" target="RWU9gz9hV0U9yjADyxS5-7">
          <mxGeometry relative="1" as="geometry" />
        </mxCell>
        <mxCell id="RWU9gz9hV0U9yjADyxS5-5" value="前置流程" style="rounded=0;whiteSpace=wrap;html=1;" vertex="1" parent="1">
          <mxGeometry x="192" y="998" width="93" height="60" as="geometry" />
        </mxCell>
        <mxCell id="RWU9gz9hV0U9yjADyxS5-6" style="edgeStyle=orthogonalEdgeStyle;rounded=0;orthogonalLoop=1;jettySize=auto;html=1;entryX=0;entryY=0.5;entryDx=0;entryDy=0;" edge="1" parent="1" source="RWU9gz9hV0U9yjADyxS5-7" target="RWU9gz9hV0U9yjADyxS5-8">
          <mxGeometry relative="1" as="geometry" />
        </mxCell>
        <mxCell id="RWU9gz9hV0U9yjADyxS5-7" value="冻结任务" style="rounded=0;whiteSpace=wrap;html=1;" vertex="1" parent="1">
          <mxGeometry x="441" y="998" width="85" height="60" as="geometry" />
        </mxCell>
        <mxCell id="RWU9gz9hV0U9yjADyxS5-8" value="后续流程" style="rounded=0;whiteSpace=wrap;html=1;" vertex="1" parent="1">
          <mxGeometry x="623" y="998" width="87" height="60" as="geometry" />
        </mxCell>
        <mxCell id="RWU9gz9hV0U9yjADyxS5-20" style="edgeStyle=orthogonalEdgeStyle;rounded=0;orthogonalLoop=1;jettySize=auto;html=1;entryX=0;entryY=0.5;entryDx=0;entryDy=0;" edge="1" parent="1" source="RWU9gz9hV0U9yjADyxS5-9" target="RWU9gz9hV0U9yjADyxS5-16">
          <mxGeometry relative="1" as="geometry">
            <mxPoint x="447.5" y="1204" as="targetPoint" />
          </mxGeometry>
        </mxCell>
        <mxCell id="RWU9gz9hV0U9yjADyxS5-9" value="读取任务状态&lt;div&gt;（未冻结）&lt;/div&gt;" style="rounded=0;whiteSpace=wrap;html=1;" vertex="1" parent="1">
          <mxGeometry x="318.5" y="1174" width="97" height="60" as="geometry" />
        </mxCell>
        <mxCell id="RWU9gz9hV0U9yjADyxS5-10" value="" style="endArrow=none;dashed=1;html=1;dashPattern=1 3;strokeWidth=2;rounded=0;" edge="1" parent="1">
          <mxGeometry width="50" height="50" relative="1" as="geometry">
            <mxPoint x="98" y="1086" as="sourcePoint" />
            <mxPoint x="937" y="1088" as="targetPoint" />
          </mxGeometry>
        </mxCell>
        <mxCell id="RWU9gz9hV0U9yjADyxS5-11" value="" style="endArrow=none;dashed=1;html=1;dashPattern=1 3;strokeWidth=2;rounded=0;" edge="1" parent="1">
          <mxGeometry width="50" height="50" relative="1" as="geometry">
            <mxPoint x="104" y="1282" as="sourcePoint" />
            <mxPoint x="944" y="1282" as="targetPoint" />
          </mxGeometry>
        </mxCell>
        <mxCell id="RWU9gz9hV0U9yjADyxS5-12" style="edgeStyle=orthogonalEdgeStyle;rounded=0;orthogonalLoop=1;jettySize=auto;html=1;exitX=1;exitY=0.75;exitDx=0;exitDy=0;entryX=0;entryY=0.5;entryDx=0;entryDy=0;" edge="1" parent="1" source="RWU9gz9hV0U9yjADyxS5-13" target="RWU9gz9hV0U9yjADyxS5-15">
          <mxGeometry relative="1" as="geometry" />
        </mxCell>
        <mxCell id="RWU9gz9hV0U9yjADyxS5-13" value="上游" style="rounded=1;whiteSpace=wrap;html=1;" vertex="1" parent="1">
          <mxGeometry x="86" y="939" width="63" height="353" as="geometry" />
        </mxCell>
        <mxCell id="RWU9gz9hV0U9yjADyxS5-14" style="edgeStyle=orthogonalEdgeStyle;rounded=0;orthogonalLoop=1;jettySize=auto;html=1;entryX=0;entryY=0.5;entryDx=0;entryDy=0;" edge="1" parent="1" source="RWU9gz9hV0U9yjADyxS5-15" target="RWU9gz9hV0U9yjADyxS5-9">
          <mxGeometry relative="1" as="geometry">
            <mxPoint x="531.5" y="1204" as="targetPoint" />
          </mxGeometry>
        </mxCell>
        <mxCell id="RWU9gz9hV0U9yjADyxS5-15" value="前置流程" style="rounded=0;whiteSpace=wrap;html=1;" vertex="1" parent="1">
          <mxGeometry x="195.5" y="1174" width="94" height="60" as="geometry" />
        </mxCell>
        <mxCell id="RWU9gz9hV0U9yjADyxS5-24" style="edgeStyle=orthogonalEdgeStyle;rounded=0;orthogonalLoop=1;jettySize=auto;html=1;entryX=0;entryY=0.5;entryDx=0;entryDy=0;" edge="1" parent="1" source="RWU9gz9hV0U9yjADyxS5-16" target="RWU9gz9hV0U9yjADyxS5-22">
          <mxGeometry relative="1" as="geometry" />
        </mxCell>
        <mxCell id="RWU9gz9hV0U9yjADyxS5-16" value="给任务生成批次ID&lt;div&gt;写任务对象&lt;/div&gt;" style="whiteSpace=wrap;html=1;rounded=0;fillColor=#EA6B66;" vertex="1" parent="1">
          <mxGeometry x="540" y="1174" width="83" height="60" as="geometry" />
        </mxCell>
        <mxCell id="RWU9gz9hV0U9yjADyxS5-18" value="覆盖掉了&lt;div&gt;冻结状态&lt;/div&gt;" style="ellipse;shape=cloud;whiteSpace=wrap;html=1;" vertex="1" parent="1">
          <mxGeometry x="519" y="1092" width="120" height="80" as="geometry" />
        </mxCell>
        <mxCell id="RWU9gz9hV0U9yjADyxS5-41" style="edgeStyle=orthogonalEdgeStyle;rounded=0;orthogonalLoop=1;jettySize=auto;html=1;entryX=0;entryY=0.5;entryDx=0;entryDy=0;" edge="1" parent="1" source="RWU9gz9hV0U9yjADyxS5-22" target="RWU9gz9hV0U9yjADyxS5-42">
          <mxGeometry relative="1" as="geometry">
            <mxPoint x="787" y="1204" as="targetPoint" />
          </mxGeometry>
        </mxCell>
        <mxCell id="RWU9gz9hV0U9yjADyxS5-45" style="edgeStyle=orthogonalEdgeStyle;rounded=0;orthogonalLoop=1;jettySize=auto;html=1;entryX=0.5;entryY=1;entryDx=0;entryDy=0;" edge="1" parent="1" source="RWU9gz9hV0U9yjADyxS5-22" target="RWU9gz9hV0U9yjADyxS5-15">
          <mxGeometry relative="1" as="geometry">
            <Array as="points">
              <mxPoint x="708" y="1254" />
              <mxPoint x="243" y="1254" />
            </Array>
          </mxGeometry>
        </mxCell>
        <mxCell id="RWU9gz9hV0U9yjADyxS5-22" value="如果批次没有被冻结重新入队" style="rounded=0;whiteSpace=wrap;html=1;" vertex="1" parent="1">
          <mxGeometry x="659.5" y="1174" width="97" height="60" as="geometry" />
        </mxCell>
        <mxCell id="RWU9gz9hV0U9yjADyxS5-26" style="edgeStyle=orthogonalEdgeStyle;rounded=0;orthogonalLoop=1;jettySize=auto;html=1;exitX=1;exitY=0.25;exitDx=0;exitDy=0;entryX=0;entryY=0.5;entryDx=0;entryDy=0;" edge="1" parent="1" source="RWU9gz9hV0U9yjADyxS5-37" target="RWU9gz9hV0U9yjADyxS5-30">
          <mxGeometry relative="1" as="geometry" />
        </mxCell>
        <mxCell id="RWU9gz9hV0U9yjADyxS5-27" value="" style="endArrow=classic;html=1;rounded=0;" edge="1" parent="1">
          <mxGeometry width="50" height="50" relative="1" as="geometry">
            <mxPoint x="121" y="1353" as="sourcePoint" />
            <mxPoint x="808" y="1353" as="targetPoint" />
          </mxGeometry>
        </mxCell>
        <mxCell id="RWU9gz9hV0U9yjADyxS5-28" value="&lt;font style=&quot;font-size: 18px;&quot;&gt;时间&lt;/font&gt;" style="text;html=1;align=center;verticalAlign=middle;whiteSpace=wrap;rounded=0;" vertex="1" parent="1">
          <mxGeometry x="401" y="1312" width="98" height="37" as="geometry" />
        </mxCell>
        <mxCell id="RWU9gz9hV0U9yjADyxS5-29" style="edgeStyle=orthogonalEdgeStyle;rounded=0;orthogonalLoop=1;jettySize=auto;html=1;entryX=0;entryY=0.5;entryDx=0;entryDy=0;" edge="1" parent="1" source="RWU9gz9hV0U9yjADyxS5-30" target="RWU9gz9hV0U9yjADyxS5-32">
          <mxGeometry relative="1" as="geometry" />
        </mxCell>
        <mxCell id="RWU9gz9hV0U9yjADyxS5-30" value="前置流程" style="rounded=0;whiteSpace=wrap;html=1;" vertex="1" parent="1">
          <mxGeometry x="248" y="1418" width="120" height="60" as="geometry" />
        </mxCell>
        <mxCell id="RWU9gz9hV0U9yjADyxS5-31" style="edgeStyle=orthogonalEdgeStyle;rounded=0;orthogonalLoop=1;jettySize=auto;html=1;entryX=0;entryY=0.5;entryDx=0;entryDy=0;" edge="1" parent="1" source="RWU9gz9hV0U9yjADyxS5-32" target="RWU9gz9hV0U9yjADyxS5-33">
          <mxGeometry relative="1" as="geometry" />
        </mxCell>
        <mxCell id="RWU9gz9hV0U9yjADyxS5-32" value="冻结任务" style="rounded=0;whiteSpace=wrap;html=1;" vertex="1" parent="1">
          <mxGeometry x="539" y="1418" width="120" height="60" as="geometry" />
        </mxCell>
        <mxCell id="RWU9gz9hV0U9yjADyxS5-33" value="审核任务" style="rounded=0;whiteSpace=wrap;html=1;" vertex="1" parent="1">
          <mxGeometry x="684" y="1418" width="120" height="60" as="geometry" />
        </mxCell>
        <mxCell id="RWU9gz9hV0U9yjADyxS5-34" value="" style="endArrow=none;dashed=1;html=1;dashPattern=1 3;strokeWidth=2;rounded=0;" edge="1" parent="1">
          <mxGeometry width="50" height="50" relative="1" as="geometry">
            <mxPoint x="119" y="1519" as="sourcePoint" />
            <mxPoint x="811" y="1521" as="targetPoint" />
          </mxGeometry>
        </mxCell>
        <mxCell id="RWU9gz9hV0U9yjADyxS5-35" value="" style="endArrow=none;dashed=1;html=1;dashPattern=1 3;strokeWidth=2;rounded=0;" edge="1" parent="1">
          <mxGeometry width="50" height="50" relative="1" as="geometry">
            <mxPoint x="116" y="1692" as="sourcePoint" />
            <mxPoint x="808" y="1694" as="targetPoint" />
          </mxGeometry>
        </mxCell>
        <mxCell id="RWU9gz9hV0U9yjADyxS5-36" style="edgeStyle=orthogonalEdgeStyle;rounded=0;orthogonalLoop=1;jettySize=auto;html=1;exitX=1;exitY=0.75;exitDx=0;exitDy=0;entryX=0;entryY=0.5;entryDx=0;entryDy=0;" edge="1" parent="1" source="RWU9gz9hV0U9yjADyxS5-37" target="RWU9gz9hV0U9yjADyxS5-38">
          <mxGeometry relative="1" as="geometry" />
        </mxCell>
        <mxCell id="RWU9gz9hV0U9yjADyxS5-37" value="上游" style="rounded=1;whiteSpace=wrap;html=1;" vertex="1" parent="1">
          <mxGeometry x="107" y="1372" width="63" height="303" as="geometry" />
        </mxCell>
        <mxCell id="RWU9gz9hV0U9yjADyxS5-38" value="前置流程" style="rounded=0;whiteSpace=wrap;html=1;" vertex="1" parent="1">
          <mxGeometry x="250" y="1570" width="120" height="60" as="geometry" />
        </mxCell>
        <mxCell id="RWU9gz9hV0U9yjADyxS5-39" value="" style="edgeStyle=orthogonalEdgeStyle;rounded=0;orthogonalLoop=1;jettySize=auto;html=1;" edge="1" parent="1" source="RWU9gz9hV0U9yjADyxS5-38" target="RWU9gz9hV0U9yjADyxS5-40">
          <mxGeometry relative="1" as="geometry">
            <mxPoint x="549" y="1600" as="targetPoint" />
            <mxPoint x="370" y="1600" as="sourcePoint" />
          </mxGeometry>
        </mxCell>
        <mxCell id="RWU9gz9hV0U9yjADyxS5-40" value="解冻任务" style="rounded=0;whiteSpace=wrap;html=1;" vertex="1" parent="1">
          <mxGeometry x="409" y="1570" width="120" height="60" as="geometry" />
        </mxCell>
        <mxCell id="RWU9gz9hV0U9yjADyxS5-42" value="同步任务状态到其他任务" style="whiteSpace=wrap;html=1;rounded=0;" vertex="1" parent="1">
          <mxGeometry x="804" y="1174" width="97" height="60" as="geometry" />
        </mxCell>
        <mxCell id="RWU9gz9hV0U9yjADyxS5-48" value="增加消费延迟" style="ellipse;whiteSpace=wrap;html=1;" vertex="1" parent="1">
          <mxGeometry x="250" y="430" width="120" height="80" as="geometry" />
        </mxCell>
      </root>
    </mxGraphModel>
  </diagram>
</mxfile>
